<svg xmlns="http://www.w3.org/2000/svg" width="512" height="512">
    <path fill="#eaedee"
        d="M309 172c1.448.958 2.895 1.918 4.342 2.878l2.442 1.62c8.142 5.521 14.27 12.748 20.216 20.502l1.84 2.328c9.73 12.974 14.78 27.98 18.16 43.672l.613 2.813c3.46 28.513-2.522 58.182-20.293 81.183l-1.34 1.692-1.446 1.827c-5.11 6.354-10.74 12.114-16.516 17.855l-3.464 3.48a3534.291 3534.291 0 0 1-9.304 9.303c-3.272 3.265-6.538 6.537-9.804 9.808-5.481 5.487-10.968 10.967-16.459 16.443a10300.408 10300.408 0 0 0-18.938 18.943 11735.132 11735.132 0 0 1-16.352 16.36 6092.38 6092.38 0 0 0-9.726 9.731 3040.434 3040.434 0 0 1-9.153 9.138 984.649 984.649 0 0 0-3.328 3.332C204.98 460.504 188.153 471.714 167 478l-3.395 1.035c-28.02 7.014-57.944 1.464-82.609-12.867C75.188 462.648 70.032 458.544 65 454l-2.55-2.3c-18.902-17.961-30.966-43.544-31.786-69.704-.03-2.52-.043-5.039-.039-7.558l.003-1.999c.048-10.958.867-21.04 4.372-31.439l.715-2.131c2.842-8.14 6.513-15.744 10.972-23.119l1.058-1.784c2.736-4.3 6.035-8.031 9.492-11.759l1.585-1.711c6.67-7.155 13.584-14.067 20.498-20.984l4.306-4.316c2.979-2.985 5.959-5.967 8.94-8.948 3.828-3.827 7.648-7.661 11.467-11.497 2.947-2.958 5.9-5.913 8.853-8.865 1.412-1.414 2.823-2.829 4.232-4.246 1.955-1.964 3.916-3.923 5.879-5.88l1.762-1.78C128.772 230 128.772 230 131 230l-.048 2.943c-.055 3.692-.089 7.384-.117 11.077a650.516 650.516 0 0 1-.061 4.744c-.272 16.746 2.111 31.519 8.06 47.25l.936 2.6.862 2.274c.482 2.764-.222 3.717-1.632 6.112-1.484 1.704-1.484 1.704-3.237 3.417l-1.994 1.964-2.156 2.096-4.533 4.472a4278.81 4278.81 0 0 1-7.135 6.99c-2.305 2.256-4.6 4.521-6.894 6.788l-2.125 2.059c-10.903 10.794-18.665 23.416-19.239 39.026.305 12.283 4.841 24.291 13.235 33.305 9.667 8.759 21.447 13.313 34.465 13.094 26.816-2.165 43.66-25.088 61.466-42.864a24328.404 24328.404 0 0 0 20.888-20.85c6.054-6.048 12.113-12.09 18.178-18.126 4.721-4.7 9.436-9.404 14.147-14.114 2.8-2.799 5.602-5.595 8.41-8.386 2.64-2.622 5.271-5.252 7.898-7.887 1.408-1.41 2.823-2.81 4.239-4.212 12.916-13 20.685-25.19 20.702-43.708-.21-12.406-4.762-21.945-13.124-31.029-5.31-5.046-11.571-8.023-18.191-11.035 4.751-5.717 9.846-10.977 15.117-16.215l2.598-2.593c2.717-2.712 5.439-5.42 8.16-8.13l5.555-5.54c4.52-4.51 9.044-9.017 13.57-13.522Z" />
    <path fill="#a4a5a5"
        d="M373.5 30.625h2.002c29.526.095 54.895 11.5 76.248 31.688 21.995 23.015 30.214 51.812 29.625 83.062-.854 24.585-11.006 47.451-27.626 65.42l-1.586 1.715c-6.591 7.08-13.427 13.918-20.265 20.76l-4.238 4.248a11192.69 11192.69 0 0 1-8.8 8.806c-3.766 3.767-7.526 7.54-11.284 11.316-2.901 2.912-5.807 5.82-8.714 8.727-1.39 1.39-2.778 2.783-4.165 4.178-1.924 1.933-3.854 3.86-5.785 5.786l-1.735 1.752C383.228 282 383.228 282 381 282l.063-2.987c.439-22.636.399-43.357-8.308-64.639-1.934-4.888-1.934-4.888-1.018-7.373 1.328-2.104 2.721-3.68 4.5-5.418l1.994-1.964 2.156-2.096 4.533-4.472a4278.81 4278.81 0 0 1 7.135-6.99c2.305-2.256 4.6-4.521 6.894-6.788l2.125-2.059c11.175-11.063 18.577-23.647 19.238-39.589-.324-11.515-4.667-23.464-12.53-31.969-9.795-9.107-21.755-14.092-35.169-13.867-26.907 2.172-43.836 25.264-61.701 43.099l-5.1 5.088c-5.34 5.328-10.68 10.657-16.016 15.99-6.122 6.117-12.25 12.228-18.385 18.333-4.773 4.751-9.54 9.508-14.302 14.269-2.831 2.83-5.666 5.659-8.506 8.481-2.668 2.651-5.328 5.31-7.983 7.974-1.426 1.427-2.86 2.847-4.293 4.266-11.165 11.237-19.667 23.49-20.397 39.805.336 13.884 5.45 24.882 14.914 34.847 5.071 4.812 10.703 7.485 17.156 10.059-4.751 5.717-9.846 10.977-15.117 16.215l-2.598 2.593c-2.717 2.712-5.439 5.42-8.16 8.13l-5.555 5.54c-4.52 4.51-9.044 9.017-13.57 13.522-1.444-.953-2.886-1.909-4.328-2.865l-2.435-1.61c-22.104-15.06-35.144-41.082-40.327-66.662-1.09-6.194-1.255-12.272-1.222-18.55.005-1.142.01-2.284.017-3.46.672-47.024 33.023-75.728 64.014-106.81l3.552-3.565c5.559-5.577 11.12-11.153 16.684-16.726 6.371-6.38 12.734-12.77 19.09-19.165 4.954-4.985 9.915-9.96 14.883-14.932a3197.41 3197.41 0 0 0 8.833-8.87c2.763-2.786 5.535-5.562 8.314-8.33a596.932 596.932 0 0 0 3.01-3.03C308.807 49.496 327.248 38.445 349 33l2.19-.562c7.411-1.704 14.73-1.823 22.31-1.813Z" />
</svg>